<svg width="25" height="27" viewBox="0 0 25 27" fill="none" xmlns="http://www.w3.org/2000/svg">
<path d="M7.8148 11.6476H22.9704C23.9853 11.6476 24.8311 12.5036 24.8311 13.5308C24.8311 14.558 23.9853 15.414 22.9704 15.414H7.78097C6.76609 15.414 5.92035 14.558 5.92035 13.5308C5.95418 12.4693 6.76609 11.6476 7.8148 11.6476Z" fill="#00B33C"/>
<path d="M1.89464 0.861908H22.9704C23.9853 0.861908 24.8311 1.71791 24.8311 2.74512C24.8311 3.77233 23.9853 4.62833 22.9704 4.62833H1.86081C0.845921 4.62833 0.000183105 3.77233 0.000183105 2.74512C0.0340118 1.71791 0.845921 0.861908 1.89464 0.861908Z" fill="#00B33C"/>
<path d="M1.89464 22.399H22.9704C23.9853 22.399 24.8311 23.255 24.8311 24.2822C24.8311 25.3094 23.9853 26.1654 22.9704 26.1654H1.86081C0.845921 26.1654 0.000183105 25.3094 0.000183105 24.2822C0.0340118 23.255 0.845921 22.399 1.89464 22.399Z" fill="#00B33C"/>
</svg>
