<svg width="42" height="43" viewBox="0 0 42 43" fill="none" xmlns="http://www.w3.org/2000/svg">
<path d="M37.5294 -0.00012207H3.71752C2.73218 0.000729723 1.78742 0.400578 1.09049 1.11174C0.393554 1.82291 0.0013706 2.78731 0 3.79333V38.2947C0.0013706 39.3007 0.393554 40.2651 1.09049 40.9763C1.78742 41.6874 2.73218 42.0873 3.71752 42.0881H37.5294C38.5147 42.0873 39.4594 41.6874 40.1563 40.9762C40.8532 40.2651 41.2453 39.3007 41.2467 38.2947V3.79333C41.2453 2.78734 40.8532 1.82296 40.1563 1.1118C39.4594 0.400629 38.5147 0.000754971 37.5294 -0.00012207ZM40.2109 38.2947C40.2099 39.0203 39.927 39.7158 39.4242 40.2287C38.9215 40.7417 38.2401 41.0301 37.5294 41.0306H3.71752C3.0068 41.0301 2.3253 40.7417 1.82255 40.2288C1.3198 39.7159 1.03685 39.0203 1.03576 38.2947V3.79333C1.03685 3.06769 1.3198 2.37213 1.82255 1.85922C2.3253 1.34631 3.0068 1.05793 3.71752 1.05737H37.5294C38.2401 1.05795 38.9215 1.34636 39.4242 1.85927C39.927 2.37218 40.2099 3.06772 40.2109 3.79333V38.2947Z" fill="white"/>
<path d="M17.9072 11.2653H11.8997V5.13544C11.8997 4.9952 11.8451 4.8607 11.748 4.76154C11.6509 4.66238 11.5191 4.60669 11.3818 4.60669C11.2444 4.60669 11.1127 4.66238 11.0156 4.76154C10.9184 4.8607 10.8639 4.9952 10.8639 5.13544V11.2653H4.85626C4.71891 11.2653 4.58717 11.321 4.49005 11.4201C4.39293 11.5193 4.33838 11.6538 4.33838 11.794C4.33838 11.9343 4.39293 12.0688 4.49005 12.1679C4.58717 12.2671 4.71891 12.3228 4.85626 12.3228H10.8639V18.4526C10.8639 18.5929 10.9184 18.7274 11.0156 18.8265C11.1127 18.9257 11.2444 18.9814 11.3818 18.9814C11.5191 18.9814 11.6509 18.9257 11.748 18.8265C11.8451 18.7274 11.8997 18.5929 11.8997 18.4526V12.3228H17.9072C18.0445 12.3228 18.1763 12.2671 18.2734 12.1679C18.3705 12.0688 18.4251 11.9343 18.4251 11.794C18.4251 11.6538 18.3705 11.5193 18.2734 11.4201C18.1763 11.321 18.0445 11.2653 17.9072 11.2653Z" fill="white"/>
<path d="M36.3193 11.2653H23.2684C23.131 11.2653 22.9993 11.321 22.9022 11.4202C22.805 11.5193 22.7505 11.6538 22.7505 11.7941C22.7505 11.9343 22.805 12.0688 22.9022 12.168C22.9993 12.2671 23.131 12.3228 23.2684 12.3228H36.3193C36.3873 12.3228 36.4547 12.3092 36.5175 12.2826C36.5803 12.256 36.6374 12.2171 36.6855 12.168C36.7336 12.1189 36.7718 12.0606 36.7978 11.9964C36.8238 11.9323 36.8372 11.8635 36.8372 11.7941C36.8372 11.7246 36.8238 11.6559 36.7978 11.5917C36.7718 11.5276 36.7336 11.4693 36.6855 11.4202C36.6374 11.3711 36.5803 11.3321 36.5175 11.3055C36.4547 11.279 36.3873 11.2653 36.3193 11.2653Z" fill="white"/>
<path d="M34.5204 27.9662H25.067C24.9296 27.9662 24.7979 28.0219 24.7007 28.1211C24.6036 28.2203 24.5491 28.3548 24.5491 28.495C24.5491 28.6352 24.6036 28.7697 24.7007 28.8689C24.7979 28.968 24.9296 29.0237 25.067 29.0237H34.5204C34.6578 29.0237 34.7895 28.968 34.8866 28.8689C34.9838 28.7697 35.0383 28.6352 35.0383 28.495C35.0383 28.3548 34.9838 28.2203 34.8866 28.1211C34.7895 28.0219 34.6578 27.9662 34.5204 27.9662Z" fill="white"/>
<path d="M34.5204 33.077H25.067C24.9296 33.077 24.7979 33.1327 24.7007 33.2319C24.6036 33.331 24.5491 33.4655 24.5491 33.6058C24.5491 33.746 24.6036 33.8805 24.7007 33.9797C24.7979 34.0788 24.9296 34.1345 25.067 34.1345H34.5204C34.6578 34.1345 34.7895 34.0788 34.8866 33.9797C34.9838 33.8805 35.0383 33.746 35.0383 33.6058C35.0383 33.4655 34.9838 33.331 34.8866 33.2319C34.7895 33.1327 34.6578 33.077 34.5204 33.077Z" fill="white"/>
<path d="M16.362 25.5721C16.314 25.523 16.2569 25.484 16.1941 25.4574C16.1313 25.4308 16.0639 25.4171 15.9959 25.4171C15.9279 25.417 15.8606 25.4307 15.7977 25.4573C15.7349 25.4838 15.6778 25.5228 15.6297 25.5719L11.3817 29.9065L7.13373 25.5719C7.03656 25.4729 6.90488 25.4174 6.76762 25.4175C6.63037 25.4176 6.49877 25.4734 6.40174 25.5725C6.30471 25.6716 6.25022 25.806 6.25019 25.9461C6.25017 26.0862 6.30462 26.2206 6.40161 26.3198L10.6492 30.654L6.40161 34.9883C6.35344 35.0373 6.31521 35.0956 6.28911 35.1597C6.26301 35.2239 6.24956 35.2927 6.24951 35.3621C6.24946 35.4316 6.26283 35.5004 6.28883 35.5646C6.31484 35.6288 6.35298 35.6872 6.40108 35.7363C6.44918 35.7854 6.50628 35.8244 6.56914 35.851C6.632 35.8776 6.69938 35.8913 6.76742 35.8913C6.83546 35.8912 6.90284 35.8775 6.9657 35.8509C7.02855 35.8243 7.08565 35.7853 7.13373 35.7361L11.3817 31.4015L15.6297 35.7361C15.6778 35.7853 15.7349 35.8243 15.7978 35.8509C15.8606 35.8775 15.928 35.8912 15.996 35.8913C16.0641 35.8913 16.1314 35.8776 16.1943 35.851C16.2572 35.8244 16.3143 35.7854 16.3624 35.7363C16.4105 35.6872 16.4486 35.6288 16.4746 35.5646C16.5006 35.5004 16.514 35.4316 16.514 35.3621C16.5139 35.2927 16.5004 35.2239 16.4743 35.1597C16.4482 35.0956 16.41 35.0373 16.3618 34.9883L12.1142 30.654L16.3618 26.3198C16.4099 26.2707 16.4481 26.2125 16.4742 26.1483C16.5002 26.0842 16.5136 26.0154 16.5136 25.946C16.5136 25.8766 16.5003 25.8078 16.4743 25.7436C16.4483 25.6795 16.4101 25.6212 16.362 25.5721Z" fill="white"/>
</svg>
