<svg width="30" height="36" viewBox="0 0 30 36" fill="none" xmlns="http://www.w3.org/2000/svg">
<path d="M29.4808 33.195C29.1209 32.3696 28.7909 31.5148 28.311 30.7189C27.4111 29.186 26.3012 27.7711 25.2213 26.3562C23.1216 23.6147 20.8419 21.0207 18.4121 18.5446C20.2719 16.1569 22.0117 13.6808 23.5715 11.1162C24.5014 9.61286 25.4313 8.05055 26.1812 6.45876C26.5712 5.63338 26.8112 4.74905 27.0811 3.86472C27.3211 3.12778 27.4411 2.15502 27.3211 1.41808C27.2611 1.03487 26.8112 0.858001 26.5112 1.06434C26.4512 1.09382 26.3912 1.15278 26.3312 1.18225C26.2712 1.09382 26.1812 1.00539 26.0312 1.00539C25.7913 1.00539 25.5513 1.03487 25.3113 1.03487C25.2513 1.00539 25.1913 0.975911 25.1314 0.916956C24.7114 0.651657 24.3214 0.356881 23.8715 0.12106C23.3016 -0.173717 22.6716 0.0915819 22.4917 0.681135C20.7219 5.95763 18.3222 10.9394 15.4125 15.6853C13.5227 14.005 11.543 12.3838 9.5032 10.9099C7.94339 9.78973 6.38357 8.72853 4.79376 7.69682C3.29394 6.69458 1.79411 5.66286 0.234296 4.74905C0.114311 4.6901 -0.0656681 4.83748 0.0243213 4.95539C1.0142 6.28189 2.30405 7.40204 3.5639 8.52219C5.00373 9.76025 6.47356 10.9394 7.94339 12.1479C10.1031 13.9166 12.1729 15.8032 14.1227 17.7782C11.453 21.905 8.42333 25.8256 5.21371 29.5692C4.76376 30.0409 4.31381 30.483 3.86387 30.9547C3.05396 31.839 2.21406 32.7233 1.49415 33.6961C1.13419 34.0793 0.804229 34.4625 0.444272 34.8163C0.234297 35.0226 0.534261 35.2879 0.744236 35.111C0.774233 35.0816 0.804229 35.0521 0.834226 35.0226C0.864222 35.0226 0.924215 35.0226 0.954212 34.9931C2.42404 33.9614 3.80387 32.7528 5.18371 31.6032C6.65354 30.3946 8.12337 29.186 9.5332 27.9185C12.1429 25.6192 14.5426 23.1136 16.7623 20.4606C18.8921 22.7304 20.8719 25.1181 22.7016 27.6532C23.6915 29.0386 24.5914 30.483 25.5513 31.898C26.0612 32.6644 26.6912 33.3424 27.2311 34.0793C27.711 34.7573 28.461 35.5237 29.2109 35.9364C29.5708 36.1133 29.9608 35.9069 29.9908 35.4942C30.0508 34.8457 29.8108 33.9024 29.4808 33.195Z" fill="#FF1111"/>
</svg>
