<svg width="31" height="51" viewBox="0 0 31 51" fill="none" xmlns="http://www.w3.org/2000/svg">
<path d="M30.5732 51H1.24707V44.1641L14.7139 27.04C16.4229 24.6702 17.6761 22.5967 18.4736 20.8193C19.2939 19.0192 19.7041 17.2988 19.7041 15.6582C19.7041 13.4479 19.3167 11.7161 18.542 10.4629C17.79 9.20964 16.6963 8.58301 15.2607 8.58301C13.6885 8.58301 12.4352 9.31217 11.501 10.7705C10.5895 12.2288 10.1338 14.2796 10.1338 16.9229H0.426758C0.426758 13.8695 1.05339 11.0781 2.30664 8.54883C3.58268 6.01953 5.36003 4.0599 7.63867 2.66992C9.9401 1.25716 12.5378 0.550781 15.4316 0.550781C19.875 0.550781 23.3158 1.78125 25.7539 4.24219C28.2148 6.68034 29.4453 10.1553 29.4453 14.667C29.4453 17.4697 28.7617 20.318 27.3945 23.2119C26.0501 26.083 23.6006 29.6263 20.0459 33.8418L13.6543 42.9678H30.5732V51Z" fill="#00B33C" fill-opacity="0.25"/>
</svg>
