<svg width="30" height="52" viewBox="0 0 30 52" fill="none" xmlns="http://www.w3.org/2000/svg">
<path d="M9.86035 21.708H14.543C16.3203 21.708 17.6191 21.0928 18.4395 19.8623C19.2826 18.609 19.7041 16.9456 19.7041 14.8721C19.7041 12.8896 19.2712 11.3516 18.4053 10.2578C17.5622 9.14128 16.4229 8.58301 14.9873 8.58301C13.6429 8.58301 12.5378 9.1071 11.6719 10.1553C10.8288 11.2035 10.4072 12.5251 10.4072 14.1201H0.734375C0.734375 11.5225 1.32682 9.19824 2.51172 7.14746C3.7194 5.07389 5.39421 3.45605 7.53613 2.29395C9.70085 1.13184 12.0934 0.550781 14.7139 0.550781C19.2939 0.550781 22.8828 1.81543 25.4805 4.34473C28.0781 6.87402 29.377 10.3376 29.377 14.7354C29.377 16.9912 28.7845 19.0876 27.5996 21.0244C26.4375 22.9385 24.8994 24.4082 22.9854 25.4336C25.3324 26.4362 27.0755 27.9401 28.2148 29.9453C29.377 31.9505 29.958 34.3203 29.958 37.0547C29.958 41.4753 28.5452 45.0186 25.7197 47.6846C22.917 50.3506 19.2256 51.6836 14.6455 51.6836C10.3844 51.6836 6.9209 50.3734 4.25488 47.7529C1.61165 45.1097 0.290039 41.6462 0.290039 37.3623H9.96289C9.96289 39.1396 10.43 40.6322 11.3643 41.8398C12.2985 43.0475 13.4834 43.6514 14.9189 43.6514C16.5824 43.6514 17.8926 43.0361 18.8496 41.8057C19.8294 40.5752 20.3193 38.9346 20.3193 36.8838C20.3193 31.9847 18.4167 29.5238 14.6113 29.501H9.86035V21.708Z" fill="#00B33C" fill-opacity="0.35"/>
</svg>
