<svg width="30" height="51" viewBox="0 0 30 51" fill="none" xmlns="http://www.w3.org/2000/svg">
<path d="M1.23828 25.5273L3.69922 0.234375H27.7959V8.50586H11.6289L10.7402 19.1699C12.6087 17.9167 14.5342 17.29 16.5166 17.29C20.6182 17.29 23.7741 18.7484 25.9844 21.665C28.2174 24.5817 29.334 28.7061 29.334 34.0381C29.334 39.0283 28.0124 43.0501 25.3691 46.1035C22.7259 49.1569 19.194 50.6836 14.7734 50.6836C12.153 50.6836 9.72624 50.0684 7.49316 48.8379C5.26009 47.5846 3.49414 45.8529 2.19531 43.6426C0.919271 41.4323 0.269857 38.9258 0.24707 36.123H9.81738C9.97689 38.1966 10.4896 39.8031 11.3555 40.9424C12.2214 42.0817 13.3379 42.6514 14.7051 42.6514C16.3001 42.6514 17.5306 41.888 18.3965 40.3613C19.2624 38.8118 19.6953 36.5104 19.6953 33.457C19.6953 30.5859 19.1712 28.4212 18.123 26.9629C17.0977 25.5046 15.6507 24.7754 13.7822 24.7754C11.9593 24.7754 10.5465 25.402 9.54395 26.6553L8.92871 27.5098L1.23828 25.5273Z" fill="#00B33C" fill-opacity="0.5"/>
</svg>
