<svg width="30" height="52" viewBox="0 0 30 52" fill="none" xmlns="http://www.w3.org/2000/svg">
<path d="M23.3184 0.72168V8.9248H22.7715C19.1484 8.94759 16.266 10.0413 14.124 12.2061C12.0049 14.348 10.7174 17.3558 10.2617 21.2295C12.3353 18.8597 14.9329 17.6748 18.0547 17.6748C21.6549 17.6748 24.526 19.2129 26.668 22.2891C28.8327 25.3652 29.915 29.4668 29.915 34.5938C29.915 37.8522 29.2998 40.7917 28.0693 43.4121C26.8389 46.0326 25.1071 48.0719 22.874 49.5303C20.6637 50.9658 18.1572 51.6836 15.3545 51.6836C10.8428 51.6836 7.21973 49.8721 4.48535 46.249C1.77376 42.626 0.417969 37.7497 0.417969 31.6201V28.0312C0.417969 22.5397 1.27246 17.7318 2.98145 13.6074C4.71322 9.48307 7.19694 6.31576 10.4326 4.10547C13.6911 1.8724 17.485 0.744466 21.8145 0.72168H23.3184ZM15.0127 25.6729C13.7822 25.6729 12.7454 26.0602 11.9023 26.835C11.082 27.6097 10.4668 28.5667 10.0566 29.7061V33.1924C10.0566 36.7015 10.5238 39.3219 11.458 41.0537C12.3923 42.7855 13.6227 43.6514 15.1494 43.6514C16.6989 43.6514 17.9408 42.8197 18.875 41.1562C19.8092 39.4701 20.2764 37.3167 20.2764 34.6963C20.2764 32.0303 19.7865 29.8656 18.8066 28.2021C17.8496 26.516 16.585 25.6729 15.0127 25.6729Z" fill="#00B33C" fill-opacity="0.55"/>
</svg>
