<svg width="29" height="52" viewBox="0 0 29 52" fill="none" xmlns="http://www.w3.org/2000/svg">
<path d="M28.1377 14.4619C28.1377 16.8773 27.625 19.0192 26.5996 20.8877C25.5742 22.7562 24.1615 24.2487 22.3613 25.3652C24.4121 26.5273 26.0299 28.1338 27.2148 30.1846C28.3997 32.2126 28.9922 34.6051 28.9922 37.3623C28.9922 41.7829 27.7161 45.2806 25.1641 47.8555C22.612 50.4076 19.137 51.6836 14.7393 51.6836C10.3415 51.6836 6.84375 50.4076 4.24609 47.8555C1.64844 45.2806 0.349609 41.7829 0.349609 37.3623C0.349609 34.6051 0.942057 32.2012 2.12695 30.1504C3.31185 28.0996 4.94108 26.5046 7.01465 25.3652C5.19173 24.2487 3.76758 22.7562 2.74219 20.8877C1.7168 19.0192 1.2041 16.8773 1.2041 14.4619C1.2041 10.1097 2.42318 6.70312 4.86133 4.24219C7.29948 1.78125 10.5693 0.550781 14.6709 0.550781C18.818 0.550781 22.0993 1.79264 24.5146 4.27637C26.93 6.76009 28.1377 10.1553 28.1377 14.4619ZM14.7393 43.6514C16.1976 43.6514 17.3141 43.0361 18.0889 41.8057C18.8864 40.5524 19.2852 38.8206 19.2852 36.6104C19.2852 34.4001 18.875 32.6683 18.0547 31.415C17.2344 30.1618 16.1064 29.5352 14.6709 29.5352C13.2354 29.5352 12.096 30.1618 11.2529 31.415C10.4326 32.6683 10.0225 34.4001 10.0225 36.6104C10.0225 38.8206 10.4326 40.5524 11.2529 41.8057C12.096 43.0361 13.2581 43.6514 14.7393 43.6514ZM18.499 14.9746C18.499 13.0378 18.18 11.4883 17.542 10.3262C16.9268 9.16406 15.9697 8.58301 14.6709 8.58301C13.4404 8.58301 12.5062 9.15267 11.8682 10.292C11.2301 11.4085 10.9111 12.9694 10.9111 14.9746C10.9111 16.9342 11.2301 18.5179 11.8682 19.7256C12.5062 20.9105 13.4632 21.5029 14.7393 21.5029C16.0153 21.5029 16.9609 20.9105 17.5762 19.7256C18.1914 18.5179 18.499 16.9342 18.499 14.9746Z" fill="#00B33C" fill-opacity="0.65"/>
</svg>
