<svg width="73" height="67" viewBox="0 0 73 67" fill="none" xmlns="http://www.w3.org/2000/svg">
<path d="M29.3794 0.000956385C29.2588 0.0197597 29.1419 0.0612523 29.0366 0.123374L18.3618 5.80353C18.3454 5.81137 18.3289 5.81921 18.3132 5.82783L14.0776 8.05577L10.5275 9.94105C10.5189 9.94888 10.511 9.9575 10.5032 9.96534L0.513957 15.2538C0.488886 15.2686 0.464598 15.2851 0.440311 15.3023C0.405838 15.3251 0.373716 15.3494 0.342377 15.376C0.32514 15.3917 0.309471 15.4081 0.293801 15.4246C0.285183 15.4324 0.277349 15.441 0.269514 15.4489C0.233474 15.4873 0.200569 15.5279 0.17158 15.5712C0.171502 15.5791 0.171502 15.5877 0.17158 15.5955C0.134757 15.6418 0.101851 15.6906 0.0736465 15.7424C0.0735681 15.7503 0.0735681 15.7589 0.0736465 15.7667C0.0258548 15.8829 0.000783471 16.0083 0 16.134V16.2319V48.8682C0 49.213 0.191088 49.5527 0.489669 49.7251L28.7432 66.0801C28.751 66.0887 28.7596 66.0965 28.7675 66.1043H28.7918C28.8388 66.1333 28.8877 66.1577 28.9387 66.178C29.01 66.2031 29.084 66.2195 29.159 66.2265C29.1833 66.2359 29.2075 66.2438 29.2326 66.2508C29.2404 66.251 29.2491 66.251 29.2569 66.2508C29.3566 66.2508 29.4561 66.2328 29.5507 66.2022C29.5672 66.1944 29.5836 66.1867 29.5993 66.178C29.6244 66.1702 29.6486 66.1624 29.6729 66.1538C29.7066 66.1397 29.7387 66.1232 29.7709 66.1052L29.8688 66.0566C29.8774 66.0488 29.8852 66.0401 29.8931 66.0323L45.8806 56.7779C47.9203 61.6119 52.6678 65.0412 58.2445 65.1266C65.7586 65.2418 71.938 59.2317 72.0532 51.7097C72.1682 44.1876 66.1748 37.9676 58.6605 37.8516C58.6275 37.858 58.5948 37.8661 58.5626 37.8759V16.3548C58.6796 15.9281 58.4648 15.434 58.0729 15.2285L29.9417 0.122417C29.7999 0.0439919 29.6385 0.00148076 29.4765 0H29.3786L29.3794 0.000956385ZM29.4773 2.10653L55.6013 16.1354L47.1547 21.0075L20.8348 6.70918L29.4773 2.10629V2.10653ZM18.7531 7.81122L45.171 22.1581L39.2215 25.5858L12.9996 10.8472L15.6193 9.4761L18.7532 7.81122H18.7531ZM10.9429 11.9489C10.9507 11.949 10.9593 11.949 10.9672 11.9489L37.2871 26.7126L29.2808 31.3399L3.01025 16.1602L10.9429 11.949V11.9489ZM1.95727 17.8249L28.3015 33.0532V63.5599L1.95727 48.3066V17.8249ZM56.6043 17.8249V37.975C50.0193 38.8675 44.9079 44.504 44.8037 51.3182C44.7848 52.5541 44.9516 53.7507 45.2444 54.8928L30.2605 63.5596V33.0528L37.9483 28.5968L38.0707 33.8852C38.0887 34.5698 38.9814 35.0529 39.5642 34.6932L47.5705 30.0169C47.8691 29.8445 48.0633 29.5047 48.0602 29.16L48.0846 22.7453L56.6049 17.8241L56.6043 17.8249ZM46.1254 23.8968L46.101 28.6222L39.9801 32.1722L39.8822 27.4959L46.1255 23.8968H46.1254ZM58.2935 37.852C57.8898 37.8598 57.4886 37.8865 57.0938 37.9256C57.489 37.8865 57.8894 37.8559 58.2935 37.852ZM58.3425 39.8351C58.3669 39.8361 58.3914 39.8361 58.4159 39.8351C58.4322 39.8356 58.4485 39.8356 58.4648 39.8351C58.5137 39.8388 58.5628 39.8388 58.6117 39.8351C65.0679 39.9341 70.2181 45.2221 70.1193 51.6852C70.0205 58.1483 64.7011 63.2915 58.2451 63.1928C51.7889 63.0938 46.6881 57.7814 46.7868 51.3185C46.8839 44.9727 52.0036 39.901 58.343 39.836L58.3425 39.8351ZM64.0961 46.6905C64.0548 46.696 64.0139 46.7041 63.9737 46.7148C63.7905 46.7482 63.6207 46.8331 63.484 46.9596L55.7962 53.913L53.5437 51.2198C53.4676 51.1049 53.3682 51.0074 53.2518 50.9336C53.1354 50.8598 53.0048 50.8113 52.8684 50.7914C52.7321 50.7716 52.593 50.7807 52.4605 50.8182C52.3279 50.8558 52.2047 50.9208 52.099 51.0092C51.9932 51.0976 51.9074 51.2074 51.8469 51.3312C51.7865 51.4551 51.7529 51.5902 51.7483 51.7279C51.7437 51.8657 51.7683 52.0029 51.8203 52.1305C51.8723 52.2581 51.9507 52.3732 52.0503 52.4685L54.9639 55.9451C55.0483 56.0443 55.1517 56.1257 55.268 56.1844C55.3843 56.2431 55.5111 56.2781 55.641 56.2872C55.771 56.2963 55.9015 56.2794 56.0248 56.2375C56.1482 56.1956 56.2619 56.1295 56.3594 56.043L64.7817 48.4286C64.9437 48.2975 65.0596 48.1182 65.1127 47.9166C65.1657 47.7151 65.1531 47.5019 65.0767 47.308C65.0002 47.1141 64.8639 46.9497 64.6876 46.8386C64.5112 46.7275 64.304 46.6756 64.0961 46.6904L64.0961 46.6905Z" fill="#00B33C"/>
</svg>
