<svg width="56" height="56" viewBox="0 0 56 56" fill="none" xmlns="http://www.w3.org/2000/svg">
<path d="M47.501 38.7076C47.3066 38.5132 47.0178 38.4451 46.7596 38.5317L39.5124 40.9268L14.4598 15.8742L16.8543 8.62708C16.9408 8.3667 16.8727 8.08008 16.6783 7.88569L9.00618 0.212839C8.86996 0.0766221 8.6855 0 8.49253 0C8.29955 0 8.11509 0.0766221 7.97888 0.212839L2.875 5.31672C-2.12743 10.3191 0.779952 14.3773 1.43337 15.1605C1.86188 16.312 5.0346 23.9146 18.2533 37.1333C31.3919 50.2719 38.9824 53.4857 40.2048 53.9455C41.2669 54.9565 42.5042 55.4687 43.8855 55.4687C43.8919 55.4687 43.8983 55.4687 43.904 55.4687C47.1106 55.458 49.9275 52.6539 50.0691 52.5109C50.0692 52.5109 50.0692 52.5109 50.0692 52.5109L55.1731 47.4078C55.3093 47.2715 55.3859 47.0871 55.3859 46.8941C55.3859 46.7011 55.3093 46.5167 55.1731 46.3805L47.501 38.7076ZM8.49253 1.75379L15.3346 8.59657L13.3098 14.7242L4.41595 5.83037L8.49253 1.75379ZM43.8997 54.0157C43.8948 54.0157 43.8905 54.0157 43.8855 54.0157C42.8369 54.0157 41.9295 53.6184 41.1129 52.8018C41.0342 52.7231 40.9363 52.6628 40.8306 52.6266C40.7547 52.601 33.0698 49.8951 19.2806 36.106C5.4915 22.3169 2.7856 14.632 2.76006 14.5575C2.72601 14.4553 2.66712 14.3588 2.59192 14.2808C2.46457 14.1487 -0.362284 11.1074 3.40497 6.87399L13.1161 16.5851L38.8015 42.2705L48.5001 51.9692C47.6258 52.7005 45.7993 54.009 43.8997 54.0157ZM49.5556 50.97L40.6624 42.0769L46.7901 40.0513L53.6321 46.8941L49.5556 50.97Z" fill="#00B33C"/>
<path d="M28.7795 15.0206C28.7795 21.4299 33.9941 26.6444 40.4034 26.6444C46.8127 26.6444 52.0272 21.4299 52.0272 15.0206C52.0272 8.61129 46.8127 3.39673 40.4034 3.39673C33.9941 3.39673 28.7795 8.61129 28.7795 15.0206ZM50.5743 15.0206C50.5743 20.6289 46.0117 25.1914 40.4034 25.1914C34.7951 25.1914 30.2325 20.6289 30.2325 15.0206C30.2325 9.41227 34.7951 4.84971 40.4034 4.84971C46.0117 4.84971 50.5743 9.41227 50.5743 15.0206Z" fill="#00B33C"/>
<path d="M39.8877 19.9536C39.7565 20.0913 39.677 20.2729 39.677 20.4694C39.677 20.6652 39.7565 20.8468 39.8877 20.9852C40.0253 21.1157 40.2148 21.1959 40.4035 21.1959C40.5993 21.1959 40.7809 21.1157 40.9122 20.9852C41.0498 20.8468 41.13 20.6581 41.13 20.4694C41.13 20.2807 41.0498 20.0913 40.9193 19.9536C40.6504 19.6847 40.1566 19.6847 39.8877 19.9536Z" fill="#00B33C"/>
<path d="M39.677 8.37908V16.8373C39.677 17.2389 40.0019 17.5638 40.4035 17.5638C40.805 17.5638 41.13 17.2389 41.13 16.8373V8.37908C41.13 7.97752 40.805 7.65259 40.4035 7.65259C40.0019 7.65259 39.677 7.97752 39.677 8.37908Z" fill="#00B33C"/>
</svg>
