<svg width="71" height="66" viewBox="0 0 71 66" fill="none" xmlns="http://www.w3.org/2000/svg">
<path d="M70.2419 58.3707H69.2206V56.4763C69.2206 55.2953 68.2626 54.3338 67.085 54.3338H65.9788L69.6829 38.3237C70.0024 36.8516 69.6178 34.7075 68.8018 33.4358L61.5143 22.3017V0.757919C61.5143 0.493086 61.3787 0.260849 61.1741 0.125648C61.1686 0.122467 61.1622 0.120092 61.1575 0.116911C61.121 0.0938474 61.0837 0.07316 61.0433 0.0572541C61.0322 0.0524823 61.0203 0.0501026 61.0092 0.0461261C60.9743 0.0334014 60.9386 0.0214651 60.9013 0.0143075C60.8926 0.0127169 60.8839 0.0127242 60.8744 0.011929C60.8355 0.00556658 60.7966 0 60.7562 0H48.1993C48.1977 0 48.1961 0 48.1937 0H37.3814C37.3798 0 37.3782 0 37.3758 0H24.8165C24.7174 0 24.6238 0.0198826 24.5382 0.0548756C24.5366 0.0556709 24.5342 0.05567 24.5326 0.0564653C24.4351 0.0962301 24.3479 0.155879 24.2757 0.229842L9.40323 15.1464C9.40164 15.148 9.40006 15.1504 9.39847 15.1528C9.36517 15.1862 9.33583 15.2228 9.30966 15.2625C9.29618 15.2816 9.28745 15.3031 9.27635 15.3238C9.26366 15.3468 9.25018 15.3691 9.23987 15.3929C9.22877 15.4184 9.22322 15.4454 9.21529 15.4717C9.20895 15.4924 9.20101 15.513 9.19705 15.5345C9.18674 15.5838 9.18198 15.6339 9.18198 15.6832V22.7645L2.1934 33.443C1.38139 34.7075 0.995993 36.8516 1.31794 38.3341L5.0196 54.3338H3.91338C2.73501 54.3338 1.77708 55.2953 1.77708 56.4763V58.3707H0.756505C0.338601 58.3707 0 58.7103 0 59.1287V65.2413C0 65.6604 0.338601 66 0.756505 66H23.1798C23.5977 66 23.9363 65.6604 23.9363 65.2413V59.1287C23.9363 58.7103 23.5977 58.3707 23.1798 58.3707H22.4415V56.4763C22.4415 55.2953 21.4836 54.3338 20.3052 54.3338H19.4393V52.4856H22.4994H33.3165H45.8782C46.0923 52.4856 46.2834 52.3965 46.4214 52.2541L51.8557 46.804C51.6654 47.9945 51.56 49.3338 51.56 50.6898V54.3338H50.6956C49.5172 54.3338 48.5593 55.2953 48.5593 56.4763V58.3707H47.8202C47.4023 58.3707 47.0637 58.7103 47.0637 59.1287V65.2413C47.0637 65.6604 47.4023 66 47.8202 66H70.2435C70.6614 66 71 65.6604 71 65.2413V59.1287C70.9984 58.7103 70.6598 58.3707 70.2419 58.3707ZM56.5962 14.7877C56.1283 14.06 55.3948 13.5502 54.5844 13.3904C53.835 13.2425 53.0857 13.3976 52.4735 13.827C51.1968 14.7225 50.721 16.6257 51.3887 18.1614L55.3703 27.8385C54.1641 28.3133 53.318 29.5039 53.318 30.8964V39.5954C53.318 40.2356 53.2229 41.1255 53.0579 42.0354C52.931 42.732 52.7724 43.3818 52.6035 43.9075L46.6347 49.8929V15.9958L60.0021 2.58868V19.9898L56.5962 14.7877ZM34.0706 36.1995C34.0706 36.1008 34.0516 36.0015 34.0112 35.9076C33.9913 35.8607 33.9676 35.8169 33.939 35.7756C33.9382 35.7748 33.9382 35.774 33.9374 35.7732C33.9287 35.7605 33.9184 35.7509 33.9089 35.739C33.8883 35.7128 33.8676 35.6857 33.8439 35.6618C33.8264 35.6444 33.8066 35.6308 33.7876 35.6149C33.7685 35.599 33.7503 35.5823 33.7297 35.5688C33.709 35.5545 33.6861 35.5449 33.6646 35.533C33.6432 35.5211 33.6218 35.5092 33.5988 35.4996C33.5758 35.4901 33.5512 35.4845 33.5275 35.4773C33.5045 35.471 33.4822 35.4622 33.4585 35.4583C33.4244 35.4511 33.3895 35.4495 33.3546 35.4479C33.3411 35.4471 33.3276 35.4431 33.3141 35.4431C33.3133 35.4431 33.3125 35.4439 33.3118 35.4439C33.2126 35.4439 33.1135 35.463 33.0199 35.5028C32.9732 35.5219 32.9295 35.5473 32.8883 35.5752C32.8875 35.576 32.8867 35.576 32.8859 35.5768L27.9044 39.0069L22.9252 35.5768C22.9244 35.576 22.9236 35.576 22.9228 35.5752C22.8816 35.5473 22.838 35.5227 22.7912 35.5028C22.6976 35.463 22.5985 35.4439 22.4994 35.4439C22.4986 35.4439 22.4978 35.4431 22.497 35.4431C22.4835 35.4431 22.4716 35.4463 22.459 35.4471C22.4233 35.4495 22.3876 35.4511 22.3527 35.4583C22.3297 35.463 22.3083 35.471 22.2861 35.4773C22.2615 35.4845 22.2361 35.4909 22.2123 35.4996C22.1901 35.5092 22.1695 35.5211 22.1481 35.533C22.1259 35.5442 22.1029 35.5545 22.0823 35.5688C22.0617 35.5823 22.0434 35.599 22.0236 35.6149C22.0054 35.6308 21.9855 35.6436 21.9681 35.6618C21.9427 35.6857 21.9213 35.7136 21.9007 35.7422C21.8928 35.7533 21.8825 35.7613 21.8745 35.7732C21.8737 35.774 21.8737 35.7748 21.8729 35.7756C21.8174 35.8575 21.777 35.9497 21.7572 36.05C21.7468 36.1001 21.7421 36.1502 21.7421 36.1995C21.7421 36.2003 21.7421 36.2019 21.7421 36.2027V50.9673H10.6934V16.4411H21.7413V31.2066C21.7413 31.2074 21.7413 31.2082 21.7413 31.209C21.7413 31.2591 21.7461 31.3092 21.7564 31.3585C21.7572 31.3633 21.7595 31.368 21.7603 31.3736C21.7698 31.4166 21.7825 31.4595 21.8 31.5009C21.8198 31.5478 21.8444 31.5915 21.8721 31.6329C21.8721 31.6337 21.8729 31.6345 21.8729 31.6353C21.8975 31.6703 21.9245 31.7021 21.9538 31.7323C21.9602 31.7387 21.9665 31.745 21.9729 31.7514C22.0371 31.8134 22.1092 31.8619 22.1877 31.8977C22.1965 31.9017 22.2044 31.9057 22.2131 31.9089C22.2528 31.9248 22.2932 31.9375 22.3344 31.9462C22.3432 31.9478 22.3511 31.9494 22.3598 31.951C22.405 31.959 22.451 31.9645 22.497 31.9645C22.543 31.9645 22.5882 31.959 22.6334 31.951C22.6469 31.9486 22.6596 31.9454 22.6723 31.9423C22.704 31.9351 22.7349 31.9256 22.7658 31.9128C22.7793 31.9081 22.792 31.9033 22.8047 31.8977C22.838 31.8826 22.8705 31.8643 22.903 31.8444C22.9094 31.8405 22.9165 31.8373 22.9228 31.8333C22.9236 31.8333 22.9244 31.8325 22.9252 31.8317L27.9068 28.4008L32.8859 31.8317C32.8867 31.8325 32.8883 31.8325 32.8891 31.8333C32.8954 31.8373 32.9026 31.8405 32.9081 31.8444C32.9398 31.8651 32.9732 31.8826 33.0065 31.8977C33.0191 31.9033 33.0318 31.9081 33.0453 31.9128C33.0762 31.9248 33.1072 31.9343 33.1389 31.9423C33.1516 31.9454 33.1643 31.9486 33.1777 31.951C33.2229 31.959 33.2681 31.9645 33.3133 31.9645C33.3593 31.9645 33.4053 31.959 33.4505 31.951C33.4593 31.9494 33.468 31.9486 33.4759 31.9462C33.5171 31.9375 33.5576 31.9248 33.5972 31.9089C33.606 31.9057 33.6147 31.9009 33.6234 31.8969C33.6623 31.8794 33.7011 31.8595 33.7368 31.8357C33.7368 31.8357 33.7368 31.8357 33.7368 31.8349C33.7725 31.811 33.8058 31.7824 33.8375 31.7522C33.8439 31.7458 33.8502 31.7395 33.8565 31.7331C33.8851 31.7029 33.9128 31.6719 33.9366 31.6361C33.9374 31.6353 33.9374 31.6345 33.9382 31.6337C33.966 31.5923 33.9906 31.5486 34.0104 31.5017C34.0231 31.4714 34.0302 31.4404 34.0389 31.4094C34.0437 31.3927 34.0508 31.3768 34.0548 31.3593C34.0651 31.3092 34.0699 31.2599 34.0699 31.2098C34.0699 31.209 34.0699 31.2082 34.0699 31.2074V16.4411H45.1201V50.9681H34.0706V36.2034C34.0706 36.2019 34.0706 36.2011 34.0706 36.1995ZM25.1313 1.51663H35.5527L22.1846 14.9237H11.764L25.1313 1.51663ZM46.3691 1.51663L33.0017 14.9237H24.3241L37.6914 1.51663H46.3691ZM58.9308 1.51663L45.5642 14.9237H35.1412L48.5093 1.51663H58.9308ZM28.3358 26.8548C28.3326 26.8532 28.3286 26.8516 28.3255 26.85C28.3001 26.8333 28.2739 26.8198 28.247 26.8062C28.2287 26.7967 28.2113 26.7863 28.1922 26.7784C28.1692 26.7689 28.1447 26.7633 28.1209 26.7561C28.0979 26.749 28.0749 26.7402 28.0511 26.7362C28.0281 26.7323 28.0051 26.7315 27.9829 26.7291C27.9575 26.7267 27.9329 26.7219 27.9076 26.7219C27.8822 26.7219 27.8576 26.7259 27.8322 26.7283C27.8092 26.7307 27.7862 26.7315 27.764 26.7354C27.7402 26.7402 27.7172 26.749 27.6942 26.7553C27.6712 26.7617 27.6459 26.7681 27.6229 26.7776C27.6038 26.7856 27.5864 26.7959 27.5682 26.8054C27.5412 26.819 27.5142 26.8317 27.4889 26.8492C27.4857 26.8508 27.4825 26.8524 27.4793 26.854L23.2543 29.7647V16.4411H32.5584V29.7647L28.3358 26.8548ZM22.4217 64.4826H1.51144V59.8882H22.4217V64.4826ZM20.9269 56.4763V58.3707H3.28852V56.4763C3.28852 56.1312 3.56844 55.8512 3.9126 55.8512H20.3036C20.647 55.8512 20.9269 56.132 20.9269 56.4763ZM17.9247 54.3338H6.57068L2.79131 38.0008C2.55897 36.9296 2.87299 35.1839 3.4598 34.2701L9.1804 25.5298V51.7268C9.1804 52.146 9.51901 52.4856 9.93691 52.4856H17.9247V54.3338ZM23.2535 50.9681V37.6445L27.4762 40.5545C27.5063 40.5744 27.5372 40.5927 27.569 40.6086C27.5793 40.6134 27.5888 40.6173 27.5991 40.6221C27.6205 40.6317 27.6419 40.6396 27.6641 40.6476C27.6776 40.6515 27.6903 40.6555 27.703 40.6595C27.7236 40.6651 27.745 40.6698 27.7664 40.6738C27.7791 40.6762 27.791 40.6794 27.8037 40.681C27.8346 40.6849 27.8663 40.6873 27.8972 40.6881C27.8988 40.6881 27.9012 40.6881 27.9028 40.6881H27.9036C27.9052 40.6881 27.9076 40.6881 27.9091 40.6881C27.9409 40.6873 27.9718 40.6849 28.0027 40.681C28.0154 40.6794 28.0273 40.6762 28.04 40.6738C28.0606 40.6698 28.082 40.6651 28.1026 40.6595C28.1161 40.6555 28.1288 40.6515 28.1423 40.6476C28.1637 40.6396 28.1859 40.6309 28.2065 40.6221C28.2168 40.6173 28.2271 40.6134 28.2374 40.6078C28.2692 40.5919 28.3001 40.5752 28.3302 40.5545L32.5553 37.6445V50.9681H23.2535ZM53.0706 50.6898C53.0706 48.4144 53.3767 46.2178 53.8889 44.8109L53.908 44.7616C53.9104 44.7553 53.9128 44.7497 53.9151 44.7449C54.1514 44.0984 54.3751 43.2339 54.5448 42.3081C54.7279 41.2965 54.8287 40.3326 54.8287 39.5954V30.8964C54.8287 29.9683 55.5534 29.1794 56.444 29.1365C56.4503 29.1365 56.4558 29.1365 56.4606 29.1357C56.5843 29.1269 56.7167 29.1396 56.8476 29.1667C57.6422 29.3265 58.2187 30.0534 58.2187 30.8964V39.5787C58.2076 39.8658 58.1719 42.239 59.8704 44.2097C60.144 44.5262 60.6214 44.5612 60.9378 44.2884C61.2534 44.0141 61.2883 43.5353 61.0155 43.218C59.6532 41.6369 59.7309 39.6535 59.7317 39.6367C59.7317 39.6224 59.7325 39.6089 59.7325 39.5946V30.8956C59.7325 29.3329 58.6445 27.9793 57.1497 27.6795C57.0752 27.6636 57.0006 27.6516 56.9245 27.6421L52.7827 17.5752C52.7812 17.5705 52.7788 17.5649 52.7764 17.5593C52.3966 16.6909 52.6543 15.5504 53.3394 15.0701C53.6114 14.8792 53.95 14.8108 54.291 14.8784C54.701 14.9595 55.0761 15.2251 55.3266 15.614L67.5323 34.2629C68.1231 35.1831 68.4371 36.9296 68.2063 37.9905L64.4254 54.3338H53.0706V50.6898ZM50.0699 56.4763C50.0699 56.1312 50.3498 55.8512 50.6932 55.8512H52.3125C52.3133 55.8512 52.3133 55.8512 52.3141 55.8512C52.3149 55.8512 52.3149 55.8512 52.3157 55.8512H65.0169C65.0201 55.8512 65.0241 55.852 65.0272 55.852C65.0296 55.852 65.032 55.8512 65.0344 55.8512H67.085C67.4284 55.8512 67.7083 56.132 67.7083 56.4763V58.3707H50.0707V56.4763H50.0699ZM69.4854 64.4826H48.5744V59.8882H69.4846V64.4826H69.4854Z" fill="#00B33C"/>
</svg>
