<svg width="63" height="63" viewBox="0 0 63 63" fill="none" xmlns="http://www.w3.org/2000/svg">
<path d="M61.3807 0C60.9146 0 60.6038 0.388486 60.6038 0.776971V22.5322H31.8558V0.776971C31.8558 0.388486 31.545 0 31.0789 0C30.6127 0 30.3019 0.388486 30.3019 0.776971V22.5322H26.8055V3.88486C26.8055 3.80716 26.8055 3.72946 26.8055 3.65177V3.57407C26.8055 3.49637 26.7278 3.41867 26.6501 3.34098C26.5724 3.26328 26.4947 3.18558 26.417 3.18558H26.3393C26.2616 3.18558 26.1839 3.18558 26.1062 3.18558H6.68195C6.60426 3.18558 6.52656 3.18558 6.44886 3.18558C6.37117 3.18558 6.37117 3.18558 6.37117 3.18558C6.29347 3.26328 6.21577 3.26328 6.13807 3.34098C6.06038 3.41867 5.98268 3.49637 5.98268 3.57407C5.98268 3.65177 5.98268 3.65177 5.98268 3.65177C5.98268 3.72946 5.98268 3.80716 5.98268 3.88486V22.5322H1.55394V0.776971C1.55394 0.388486 1.24315 0 0.776971 0C0.310789 0 0 0.388486 0 0.776971V61.3807C0 61.8469 0.310789 62.1577 0.776971 62.1577C1.24315 62.1577 1.55394 61.8469 1.55394 61.3807V56.7189H30.3019V61.3807C30.3019 61.8469 30.6127 62.1577 31.0789 62.1577C31.545 62.1577 31.8558 61.8469 31.8558 61.3807V56.7189H60.6038V61.3807C60.6038 61.8469 60.9146 62.1577 61.3807 62.1577C61.8469 62.1577 62.1577 61.8469 62.1577 61.3807V0.776971C62.1577 0.310789 61.8469 0 61.3807 0ZM17.4042 13.597L25.2516 5.74959V21.4444L17.4042 13.597ZM24.1638 22.5322H8.46899L16.3164 14.6848L24.1638 22.5322ZM24.1638 4.66183L16.3164 12.5092L8.46899 4.66183H24.1638ZM7.38123 5.74959L15.2286 13.597L7.38123 21.4444V5.74959ZM1.55394 27.971H30.3019V51.2801H27.971V39.6255C27.971 39.5478 27.971 39.4701 27.971 39.3925V39.3148C27.971 39.2371 27.8933 39.1594 27.8156 39.0817C27.7379 39.004 27.6602 38.9263 27.5825 38.9263H27.5048C27.4271 38.9263 27.3494 38.9263 27.2717 38.9263H14.7625C14.6848 38.9263 14.6071 38.9263 14.5294 38.9263H14.4517C14.374 39.004 14.2963 39.004 14.2186 39.0817C14.1409 39.1594 14.0632 39.2371 14.0632 39.3148C14.0632 39.3925 14.0632 39.3925 14.0632 39.3925C14.0632 39.4701 14.0632 39.5478 14.0632 39.6255V43.1219H6.68195C6.21577 43.1219 5.90498 43.5104 5.90498 43.8989V51.2801H1.55394V27.971ZM19.8905 45.8413L15.5394 50.1924V41.4903L19.8905 45.8413ZM16.6272 40.4025H25.3293L20.9782 44.7536L16.6272 40.4025ZM20.9782 46.9291L25.3293 51.2801H16.6272L20.9782 46.9291ZM22.066 45.8413L26.417 41.4903V50.1924L22.066 45.8413ZM13.9855 44.6759V51.2801H7.38123V44.6759H13.9855ZM60.6038 55.165H1.55394V52.8341H60.6038V55.165ZM47.5507 42.7334L55.0096 35.2745V50.1924L47.5507 42.7334ZM53.8441 51.2801H39.004L46.4629 43.8212L53.8441 51.2801ZM46.4629 41.6457L39.004 34.1867H53.9218L46.4629 41.6457ZM45.2974 42.7334L37.8385 50.1924V35.2745L45.2974 42.7334ZM60.6038 51.2801H56.4858V33.4098C56.4858 33.3321 56.4858 33.2544 56.4858 33.1767V33.099C56.4858 33.0213 56.4081 32.9436 56.3304 32.8659C56.2527 32.7882 56.175 32.7105 56.0973 32.7105H56.0196C55.9419 32.7105 55.8643 32.7105 55.7866 32.7105H37.1392C36.9061 32.7105 36.7507 32.7882 36.5954 32.9436C36.5177 33.0213 36.44 33.099 36.44 33.1767C36.44 33.2544 36.44 33.2544 36.44 33.2544V33.3321C36.44 33.4098 36.44 33.4098 36.44 33.4098V51.2801H31.8558V27.971H60.6038V51.2801ZM60.6038 26.417H1.55394V24.0861H60.6038V26.417Z" fill="#00B33C"/>
</svg>
